<svg width="25" height="25" viewBox="0 0 25 25" fill="none" xmlns="http://www.w3.org/2000/svg">
<path d="M10.1806 21.3169H14.1806C14.1806 22.4169 13.2806 23.3169 12.1806 23.3169C11.0806 23.3169 10.1806 22.4169 10.1806 21.3169ZM21.1806 19.3169V20.3169H3.1806V19.3169L5.1806 17.3169V11.3169C5.1806 8.21689 7.1806 5.51689 10.1806 4.61689V4.31689C10.1806 3.21689 11.0806 2.31689 12.1806 2.31689C13.2806 2.31689 14.1806 3.21689 14.1806 4.31689V4.61689C17.1806 5.51689 19.1806 8.21689 19.1806 11.3169V17.3169L21.1806 19.3169ZM17.1806 11.3169C17.1806 8.51689 14.9806 6.31689 12.1806 6.31689C9.3806 6.31689 7.1806 8.51689 7.1806 11.3169V18.3169H17.1806V11.3169Z" fill="black"/>
</svg>
