<svg width="36" height="36" viewBox="0 0 36 36" fill="none" xmlns="http://www.w3.org/2000/svg">
<path d="M18 3C16.0302 3 14.0796 3.38799 12.2597 4.14181C10.4399 4.89563 8.78628 6.00052 7.3934 7.3934C4.58035 10.2064 3 14.0218 3 18C3 21.9782 4.58035 25.7936 7.3934 28.6066C8.78628 29.9995 10.4399 31.1044 12.2597 31.8582C14.0796 32.612 16.0302 33 18 33C21.9782 33 25.7936 31.4196 28.6066 28.6066C31.4196 25.7936 33 21.9782 33 18C33 16.0302 32.612 14.0796 31.8582 12.2597C31.1044 10.4399 29.9995 8.78628 28.6066 7.3934C27.2137 6.00052 25.5601 4.89563 23.7403 4.14181C21.9204 3.38799 19.9698 3 18 3M10.605 27.42C11.25 26.07 15.18 24.75 18 24.75C20.82 24.75 24.75 26.07 25.395 27.42C23.355 29.04 20.79 30 18 30C15.21 30 12.645 29.04 10.605 27.42ZM27.54 25.245C25.395 22.635 20.19 21.75 18 21.75C15.81 21.75 10.605 22.635 8.46 25.245C6.93 23.25 6 20.73 6 18C6 11.385 11.385 6 18 6C24.615 6 30 11.385 30 18C30 20.73 29.07 23.25 27.54 25.245ZM18 9C15.09 9 12.75 11.34 12.75 14.25C12.75 17.16 15.09 19.5 18 19.5C20.91 19.5 23.25 17.16 23.25 14.25C23.25 11.34 20.91 9 18 9ZM18 16.5C17.4033 16.5 16.831 16.2629 16.409 15.841C15.9871 15.419 15.75 14.8467 15.75 14.25C15.75 13.6533 15.9871 13.081 16.409 12.659C16.831 12.2371 17.4033 12 18 12C18.5967 12 19.169 12.2371 19.591 12.659C20.0129 13.081 20.25 13.6533 20.25 14.25C20.25 14.8467 20.0129 15.419 19.591 15.841C19.169 16.2629 18.5967 16.5 18 16.5Z" fill="white"/>
</svg>
