<svg width="36" height="36" viewBox="0 0 36 36" fill="none" xmlns="http://www.w3.org/2000/svg">
<path d="M10.5 7.5H31.5V10.5H10.5V7.5ZM10.5 19.5V16.5H31.5V19.5H10.5ZM6 6.75C6.59674 6.75 7.16903 6.98705 7.59099 7.40901C8.01295 7.83097 8.25 8.40326 8.25 9C8.25 9.59674 8.01295 10.169 7.59099 10.591C7.16903 11.0129 6.59674 11.25 6 11.25C5.40326 11.25 4.83097 11.0129 4.40901 10.591C3.98705 10.169 3.75 9.59674 3.75 9C3.75 8.40326 3.98705 7.83097 4.40901 7.40901C4.83097 6.98705 5.40326 6.75 6 6.75M6 15.75C6.59674 15.75 7.16903 15.9871 7.59099 16.409C8.01295 16.831 8.25 17.4033 8.25 18C8.25 18.5967 8.01295 19.169 7.59099 19.591C7.16903 20.0129 6.59674 20.25 6 20.25C5.40326 20.25 4.83097 20.0129 4.40901 19.591C3.98705 19.169 3.75 18.5967 3.75 18C3.75 17.4033 3.98705 16.831 4.40901 16.409C4.83097 15.9871 5.40326 15.75 6 15.75M10.5 28.5V25.5H31.5V28.5H10.5ZM6 24.75C6.59674 24.75 7.16903 24.9871 7.59099 25.409C8.01295 25.831 8.25 26.4033 8.25 27C8.25 27.5967 8.01295 28.169 7.59099 28.591C7.16903 29.0129 6.59674 29.25 6 29.25C5.40326 29.25 4.83097 29.0129 4.40901 28.591C3.98705 28.169 3.75 27.5967 3.75 27C3.75 26.4033 3.98705 25.831 4.40901 25.409C4.83097 24.9871 5.40326 24.75 6 24.75V24.75Z" fill="black"/>
</svg>
