<svg width="18" height="18" viewBox="0 0 18 18" fill="none" xmlns="http://www.w3.org/2000/svg">
<path d="M14.7349 15.2652C14.8813 15.4116 15.1187 15.4116 15.2652 15.2652C15.4116 15.1187 15.4116 14.8813 15.2652 14.7349L14.7349 15.2652ZM13.125 7.875C13.125 10.7745 10.7745 13.125 7.875 13.125V13.875C11.1887 13.875 13.875 11.1887 13.875 7.875H13.125ZM7.875 13.125C4.97551 13.125 2.625 10.7745 2.625 7.875H1.875C1.875 11.1887 4.56129 13.875 7.875 13.875V13.125ZM2.625 7.875C2.625 4.97551 4.97551 2.625 7.875 2.625V1.875C4.56129 1.875 1.875 4.56129 1.875 7.875H2.625ZM7.875 2.625C10.7745 2.625 13.125 4.97551 13.125 7.875H13.875C13.875 4.56129 11.1887 1.875 7.875 1.875V2.625ZM15.2652 14.7349L12.1245 11.5942L11.5942 12.1245L14.7349 15.2652L15.2652 14.7349Z" fill="black"/>
</svg>