<svg width="24" height="22" viewBox="0 0 24 22" fill="none" xmlns="http://www.w3.org/2000/svg">
<path d="M21 5.04167H18V0H2V16.3854H4C4 18.4777 5.34 20.1667 7 20.1667C8.66 20.1667 10 18.4777 10 16.3854H16C16 18.4777 17.34 20.1667 19 20.1667C20.66 20.1667 22 18.4777 22 16.3854H24V10.0833L21 5.04167ZM7 18.276C6.17 18.276 5.5 17.4316 5.5 16.3854C5.5 15.3393 6.17 14.4948 7 14.4948C7.83 14.4948 8.5 15.3393 8.5 16.3854C8.5 17.4316 7.83 18.276 7 18.276ZM16 3.78125H14V12.6042H12V3.78125H10V12.6042H8V3.78125H6V12.6042H4V2.52083H16V3.78125ZM19 18.276C18.17 18.276 17.5 17.4316 17.5 16.3854C17.5 15.3393 18.17 14.4948 19 14.4948C19.83 14.4948 20.5 15.3393 20.5 16.3854C20.5 17.4316 19.83 18.276 19 18.276ZM18 10.0833V6.93229H20.5L22.46 10.0833H18Z" fill="#ABCADA"/>
</svg>
